<mxfile host="app.diagrams.net" agent="Mozilla/5.0 (Windows NT 10.0; Win64; x64) AppleWebKit/537.36 (KHTML, like Gecko) Chrome/136.0.0.0 Safari/537.36" version="27.0.4">
  <diagram name="Page-1" id="2YBvvXClWsGukQMizWep">
    <mxGraphModel dx="2037" dy="1121" grid="1" gridSize="10" guides="1" tooltips="1" connect="1" arrows="1" fold="1" page="1" pageScale="1" pageWidth="850" pageHeight="1100" math="0" shadow="0">
      <root>
        <mxCell id="0" />
        <mxCell id="1" parent="0" />
        <mxCell id="F4sd7CnOWZ5qCEoItEzf-10" value="UI" style="rounded=0;whiteSpace=wrap;html=1;" parent="1" vertex="1">
          <mxGeometry x="320" y="40" width="80" height="40" as="geometry" />
        </mxCell>
        <mxCell id="F4sd7CnOWZ5qCEoItEzf-11" value="Server" style="rounded=0;whiteSpace=wrap;html=1;" parent="1" vertex="1">
          <mxGeometry x="480" y="40" width="80" height="40" as="geometry" />
        </mxCell>
        <mxCell id="F4sd7CnOWZ5qCEoItEzf-14" value="" style="endArrow=none;dashed=1;html=1;rounded=0;exitX=0.5;exitY=1;exitDx=0;exitDy=0;dashPattern=8 8;" parent="1" source="F4sd7CnOWZ5qCEoItEzf-101" edge="1">
          <mxGeometry width="50" height="50" relative="1" as="geometry">
            <mxPoint x="359.71000000000004" y="80" as="sourcePoint" />
            <mxPoint x="360" y="440" as="targetPoint" />
          </mxGeometry>
        </mxCell>
        <mxCell id="F4sd7CnOWZ5qCEoItEzf-15" value="" style="endArrow=none;dashed=1;html=1;rounded=0;exitX=0.5;exitY=1;exitDx=0;exitDy=0;dashPattern=8 8;" parent="1" source="F4sd7CnOWZ5qCEoItEzf-103" edge="1">
          <mxGeometry width="50" height="50" relative="1" as="geometry">
            <mxPoint x="519.71" y="80" as="sourcePoint" />
            <mxPoint x="520" y="440" as="targetPoint" />
          </mxGeometry>
        </mxCell>
        <mxCell id="F4sd7CnOWZ5qCEoItEzf-16" value="" style="endArrow=none;dashed=1;html=1;rounded=0;exitX=0.5;exitY=1;exitDx=0;exitDy=0;dashPattern=8 8;" parent="1" edge="1">
          <mxGeometry width="50" height="50" relative="1" as="geometry">
            <mxPoint x="199.66000000000003" y="80" as="sourcePoint" />
            <mxPoint x="200" y="440" as="targetPoint" />
          </mxGeometry>
        </mxCell>
        <mxCell id="F4sd7CnOWZ5qCEoItEzf-7" value="&lt;span style=&quot;background-color: light-dark(#ffffff, var(--ge-dark-color, #121212));&quot;&gt;Logged-in User&lt;/span&gt;" style="shape=umlActor;verticalLabelPosition=bottom;verticalAlign=top;html=1;outlineConnect=0;" parent="1" vertex="1">
          <mxGeometry x="185" y="20" width="30" height="60" as="geometry" />
        </mxCell>
        <mxCell id="F4sd7CnOWZ5qCEoItEzf-27" value="Click Profile Page" style="endArrow=classic;html=1;rounded=0;entryX=0;entryY=0.013;entryDx=0;entryDy=0;entryPerimeter=0;" parent="1" target="F4sd7CnOWZ5qCEoItEzf-101" edge="1">
          <mxGeometry width="50" height="50" relative="1" as="geometry">
            <mxPoint x="201.04" y="120" as="sourcePoint" />
            <mxPoint x="350.00000000000006" y="123.68" as="targetPoint" />
          </mxGeometry>
        </mxCell>
        <mxCell id="F4sd7CnOWZ5qCEoItEzf-34" value="Database" style="rounded=0;whiteSpace=wrap;html=1;" parent="1" vertex="1">
          <mxGeometry x="640" y="40" width="80" height="40" as="geometry" />
        </mxCell>
        <mxCell id="F4sd7CnOWZ5qCEoItEzf-36" value="Get Profile Info" style="endArrow=classic;html=1;rounded=0;" parent="1" edge="1">
          <mxGeometry width="50" height="50" relative="1" as="geometry">
            <mxPoint x="530" y="160" as="sourcePoint" />
            <mxPoint x="670" y="160" as="targetPoint" />
          </mxGeometry>
        </mxCell>
        <mxCell id="F4sd7CnOWZ5qCEoItEzf-38" value="Profile Info" style="endArrow=none;html=1;rounded=0;startArrow=block;startFill=1;dashed=1;dashPattern=8 8;" parent="1" edge="1">
          <mxGeometry width="50" height="50" relative="1" as="geometry">
            <mxPoint x="530" y="180" as="sourcePoint" />
            <mxPoint x="670" y="180" as="targetPoint" />
          </mxGeometry>
        </mxCell>
        <mxCell id="F4sd7CnOWZ5qCEoItEzf-47" value="Return Profile Info" style="endArrow=none;html=1;rounded=0;startArrow=block;startFill=1;dashed=1;dashPattern=8 8;" parent="1" edge="1">
          <mxGeometry width="50" height="50" relative="1" as="geometry">
            <mxPoint x="370" y="200" as="sourcePoint" />
            <mxPoint x="510" y="200" as="targetPoint" />
          </mxGeometry>
        </mxCell>
        <mxCell id="F4sd7CnOWZ5qCEoItEzf-102" value="" style="endArrow=none;dashed=1;html=1;rounded=0;exitX=0.5;exitY=1;exitDx=0;exitDy=0;dashPattern=8 8;" parent="1" target="F4sd7CnOWZ5qCEoItEzf-101" edge="1">
          <mxGeometry width="50" height="50" relative="1" as="geometry">
            <mxPoint x="359.71000000000004" y="80" as="sourcePoint" />
            <mxPoint x="359.71000000000004" y="880" as="targetPoint" />
          </mxGeometry>
        </mxCell>
        <mxCell id="F4sd7CnOWZ5qCEoItEzf-104" value="" style="endArrow=none;dashed=1;html=1;rounded=0;exitX=0.5;exitY=1;exitDx=0;exitDy=0;dashPattern=8 8;" parent="1" target="F4sd7CnOWZ5qCEoItEzf-103" edge="1">
          <mxGeometry width="50" height="50" relative="1" as="geometry">
            <mxPoint x="519.71" y="80" as="sourcePoint" />
            <mxPoint x="520" y="680" as="targetPoint" />
          </mxGeometry>
        </mxCell>
        <mxCell id="FGgKV-xO7fP-TXcJbOwI-4" value="" style="endArrow=none;dashed=1;html=1;rounded=0;exitX=0.5;exitY=1;exitDx=0;exitDy=0;dashPattern=8 8;" parent="1" source="OqjclpTEt5QFUWJvG4fF-15" edge="1">
          <mxGeometry width="50" height="50" relative="1" as="geometry">
            <mxPoint x="680" y="380" as="sourcePoint" />
            <mxPoint x="680" y="440" as="targetPoint" />
          </mxGeometry>
        </mxCell>
        <mxCell id="FGgKV-xO7fP-TXcJbOwI-10" value="Open Profile Page" style="endArrow=none;html=1;rounded=0;startArrow=block;startFill=1;dashed=1;dashPattern=8 8;" parent="1" edge="1">
          <mxGeometry width="50" height="50" relative="1" as="geometry">
            <mxPoint x="200" y="220" as="sourcePoint" />
            <mxPoint x="350" y="220" as="targetPoint" />
          </mxGeometry>
        </mxCell>
        <mxCell id="FGgKV-xO7fP-TXcJbOwI-12" value="Click on Check Page" style="endArrow=classic;html=1;rounded=0;entryX=-0.052;entryY=0.018;entryDx=0;entryDy=0;entryPerimeter=0;" parent="1" edge="1">
          <mxGeometry x="-0.0002" width="50" height="50" relative="1" as="geometry">
            <mxPoint x="201" y="240" as="sourcePoint" />
            <mxPoint x="350" y="240" as="targetPoint" />
            <mxPoint as="offset" />
          </mxGeometry>
        </mxCell>
        <mxCell id="FGgKV-xO7fP-TXcJbOwI-16" value="Request Profile" style="endArrow=none;html=1;rounded=0;startArrow=block;startFill=1;" parent="1" edge="1">
          <mxGeometry width="50" height="50" relative="1" as="geometry">
            <mxPoint x="510" y="140" as="sourcePoint" />
            <mxPoint x="370" y="140" as="targetPoint" />
          </mxGeometry>
        </mxCell>
        <mxCell id="FGgKV-xO7fP-TXcJbOwI-22" value="Open Election&#39;s Chart" style="endArrow=none;html=1;rounded=0;startArrow=block;startFill=1;dashed=1;dashPattern=8 8;" parent="1" edge="1">
          <mxGeometry width="50" height="50" relative="1" as="geometry">
            <mxPoint x="200" y="340" as="sourcePoint" />
            <mxPoint x="350" y="340" as="targetPoint" />
          </mxGeometry>
        </mxCell>
        <mxCell id="F4sd7CnOWZ5qCEoItEzf-103" value="" style="rounded=0;whiteSpace=wrap;html=1;" parent="1" vertex="1">
          <mxGeometry x="510" y="130" width="20" height="80" as="geometry" />
        </mxCell>
        <mxCell id="F4sd7CnOWZ5qCEoItEzf-105" value="" style="rounded=0;whiteSpace=wrap;html=1;" parent="1" vertex="1">
          <mxGeometry x="670" y="150" width="20" height="40" as="geometry" />
        </mxCell>
        <mxCell id="F4sd7CnOWZ5qCEoItEzf-101" value="" style="rounded=0;whiteSpace=wrap;html=1;" parent="1" vertex="1">
          <mxGeometry x="350" y="110" width="20" height="310" as="geometry" />
        </mxCell>
        <mxCell id="F4sd7CnOWZ5qCEoItEzf-106" value="" style="endArrow=none;dashed=1;html=1;rounded=0;exitX=0.5;exitY=1;exitDx=0;exitDy=0;dashPattern=8 8;" parent="1" target="F4sd7CnOWZ5qCEoItEzf-105" edge="1">
          <mxGeometry width="50" height="50" relative="1" as="geometry">
            <mxPoint x="679.71" y="80" as="sourcePoint" />
            <mxPoint x="680" y="680" as="targetPoint" />
          </mxGeometry>
        </mxCell>
        <mxCell id="OqjclpTEt5QFUWJvG4fF-3" value="Open Check Page" style="endArrow=none;html=1;rounded=0;startArrow=block;startFill=1;dashed=1;dashPattern=8 8;" edge="1" parent="1">
          <mxGeometry width="50" height="50" relative="1" as="geometry">
            <mxPoint x="200" y="260" as="sourcePoint" />
            <mxPoint x="350" y="260" as="targetPoint" />
          </mxGeometry>
        </mxCell>
        <mxCell id="OqjclpTEt5QFUWJvG4fF-4" value="Enter Vote-Id" style="endArrow=classic;html=1;rounded=0;entryX=-0.052;entryY=0.018;entryDx=0;entryDy=0;entryPerimeter=0;dashed=1;dashPattern=8 8;" edge="1" parent="1">
          <mxGeometry x="-0.0002" width="50" height="50" relative="1" as="geometry">
            <mxPoint x="201" y="280" as="sourcePoint" />
            <mxPoint x="350" y="280" as="targetPoint" />
            <mxPoint as="offset" />
          </mxGeometry>
        </mxCell>
        <mxCell id="OqjclpTEt5QFUWJvG4fF-5" value="Click on Vote Check" style="endArrow=classic;html=1;rounded=0;entryX=-0.052;entryY=0.018;entryDx=0;entryDy=0;entryPerimeter=0;" edge="1" parent="1">
          <mxGeometry x="-0.0002" width="50" height="50" relative="1" as="geometry">
            <mxPoint x="201" y="300" as="sourcePoint" />
            <mxPoint x="350" y="300" as="targetPoint" />
            <mxPoint as="offset" />
          </mxGeometry>
        </mxCell>
        <mxCell id="OqjclpTEt5QFUWJvG4fF-6" value="Request Vote Check" style="endArrow=none;html=1;rounded=0;startArrow=block;startFill=1;" edge="1" parent="1">
          <mxGeometry width="50" height="50" relative="1" as="geometry">
            <mxPoint x="510" y="320" as="sourcePoint" />
            <mxPoint x="370" y="320" as="targetPoint" />
          </mxGeometry>
        </mxCell>
        <mxCell id="OqjclpTEt5QFUWJvG4fF-8" value="Get Vote Info" style="endArrow=none;html=1;rounded=0;startArrow=block;startFill=1;" edge="1" parent="1">
          <mxGeometry width="50" height="50" relative="1" as="geometry">
            <mxPoint x="670" y="340" as="sourcePoint" />
            <mxPoint x="530" y="340" as="targetPoint" />
            <mxPoint as="offset" />
          </mxGeometry>
        </mxCell>
        <mxCell id="OqjclpTEt5QFUWJvG4fF-10" value="Vote Info" style="endArrow=none;html=1;rounded=0;startArrow=block;startFill=1;dashed=1;dashPattern=8 8;" edge="1" parent="1">
          <mxGeometry width="50" height="50" relative="1" as="geometry">
            <mxPoint x="530" y="360" as="sourcePoint" />
            <mxPoint x="670" y="360" as="targetPoint" />
          </mxGeometry>
        </mxCell>
        <mxCell id="OqjclpTEt5QFUWJvG4fF-11" value="Return Vote Details" style="endArrow=none;html=1;rounded=0;startArrow=block;startFill=1;dashed=1;dashPattern=8 8;" edge="1" parent="1">
          <mxGeometry width="50" height="50" relative="1" as="geometry">
            <mxPoint x="370" y="380" as="sourcePoint" />
            <mxPoint x="510" y="380" as="targetPoint" />
          </mxGeometry>
        </mxCell>
        <mxCell id="OqjclpTEt5QFUWJvG4fF-12" value="Show Vote Details" style="endArrow=none;html=1;rounded=0;startArrow=block;startFill=1;dashed=1;dashPattern=8 8;" edge="1" parent="1">
          <mxGeometry width="50" height="50" relative="1" as="geometry">
            <mxPoint x="200" y="400" as="sourcePoint" />
            <mxPoint x="350" y="400" as="targetPoint" />
          </mxGeometry>
        </mxCell>
        <mxCell id="OqjclpTEt5QFUWJvG4fF-13" value="" style="rounded=0;whiteSpace=wrap;html=1;" vertex="1" parent="1">
          <mxGeometry x="510" y="310" width="20" height="80" as="geometry" />
        </mxCell>
        <mxCell id="OqjclpTEt5QFUWJvG4fF-16" value="" style="endArrow=none;dashed=1;html=1;rounded=0;exitX=0.5;exitY=1;exitDx=0;exitDy=0;dashPattern=8 8;" edge="1" parent="1" source="F4sd7CnOWZ5qCEoItEzf-105" target="OqjclpTEt5QFUWJvG4fF-15">
          <mxGeometry width="50" height="50" relative="1" as="geometry">
            <mxPoint x="680" y="190" as="sourcePoint" />
            <mxPoint x="680" y="440" as="targetPoint" />
          </mxGeometry>
        </mxCell>
        <mxCell id="OqjclpTEt5QFUWJvG4fF-15" value="" style="rounded=0;whiteSpace=wrap;html=1;" vertex="1" parent="1">
          <mxGeometry x="670" y="330" width="20" height="40" as="geometry" />
        </mxCell>
      </root>
    </mxGraphModel>
  </diagram>
</mxfile>
